<?xml version="1.0" standalone="no"?>
<!DOCTYPE svg PUBLIC "-//W3C//DTD SVG 20010904//EN"
 "http://www.w3.org/TR/2001/REC-SVG-20010904/DTD/svg10.dtd">
<svg version="1.0" xmlns="http://www.w3.org/2000/svg"
 width="400.000000pt" height="400.000000pt" viewBox="0 0 400.000000 400.000000"
 preserveAspectRatio="xMidYMid meet">
<metadata>
Created by potrace 1.14, written by Peter Selinger 2001-2017
</metadata>
<g transform="translate(0.000000,400.000000) scale(0.100000,-0.100000)"
fill="#000000" stroke="none">
<path d="M1582 3800 c-70 -18 -177 -68 -168 -78 3 -2 15 3 28 12 12 9 36 16
53 16 30 -1 30 -1 -8 -14 -41 -15 -55 -25 -105 -74 -32 -31 -39 -58 -9 -34 20
17 183 72 209 71 20 -1 21 -2 3 -6 -11 -3 -27 -11 -35 -17 -20 -17 -98 -50
-119 -51 -30 -2 -152 -89 -227 -162 -39 -37 -59 -59 -45 -47 58 46 60 46 57
29 -1 -9 -27 -41 -57 -73 -67 -69 -97 -114 -143 -212 -37 -78 -116 -324 -116
-360 0 -11 -4 -20 -9 -20 -7 0 -16 -32 -37 -130 -3 -14 -9 -34 -14 -45 -5 -11
-26 -81 -47 -155 -21 -74 -39 -127 -41 -117 -2 9 12 67 31 129 36 116 56 216
38 188 -6 -8 -15 -45 -22 -82 -7 -38 -16 -68 -20 -68 -5 0 -11 -17 -15 -37 -3
-21 -12 -51 -20 -68 -19 -44 -81 -224 -89 -262 -8 -38 1 -44 15 -10 9 22 9 22
9 -4 1 -24 19 -88 28 -98 4 -5 67 63 70 76 10 38 52 122 56 111 5 -13 37 50
37 75 0 7 9 30 20 52 11 22 21 53 21 70 1 19 3 23 6 11 12 -46 -59 -224 -147
-373 l-31 -52 54 -35 c80 -51 80 -61 6 -128 -65 -61 -67 -75 -6 -33 45 30 54
19 22 -25 -24 -32 -35 -55 -17 -34 28 31 51 67 48 73 -3 4 4 12 14 18 16 11
18 9 16 -20 -3 -40 -43 -92 -109 -144 -24 -19 -27 -27 -20 -47 l8 -24 49 33
c27 18 55 44 62 57 13 22 13 21 7 -11 -3 -19 -17 -51 -31 -72 -23 -35 -33 -43
-53 -41 -4 1 -15 -8 -24 -18 -18 -19 -17 -20 9 -20 30 0 130 86 141 121 4 11
11 19 16 19 16 0 10 -36 -11 -62 -10 -14 -17 -28 -15 -32 3 -3 2 -4 -2 -1 -8
6 -63 -45 -63 -59 0 -5 13 1 28 15 17 14 15 12 -3 -6 -17 -16 -40 -35 -51 -41
-10 -7 -16 -15 -12 -19 13 -13 94 43 123 85 31 45 46 40 21 -7 -18 -36 -73
-91 -98 -99 -26 -8 -22 -19 7 -20 44 -3 75 -14 75 -27 0 -7 11 -29 25 -49 23
-33 23 -38 9 -52 -14 -15 -14 -16 3 -16 16 -1 17 -1 1 -10 -9 -6 -19 -24 -23
-40 -4 -17 -26 -54 -49 -83 -35 -42 -41 -55 -31 -64 10 -10 16 -9 26 3 10 12
9 13 -7 8 -24 -8 19 29 56 48 14 6 34 20 45 29 20 17 20 17 21 -19 1 -20 -2
-39 -5 -42 -4 -3 -14 -18 -24 -33 l-18 -28 28 7 c15 3 43 10 62 15 19 5 36 7
37 6 2 -2 -46 -33 -107 -71 -60 -37 -107 -71 -104 -76 3 -4 -10 -17 -28 -29
-26 -17 -28 -21 -12 -21 19 -1 19 -1 2 -11 -17 -10 -15 -14 21 -53 22 -24 45
-53 51 -65 11 -21 13 -21 44 -4 18 9 35 16 38 15 4 0 15 8 24 18 23 25 15 25
-30 0 -20 -11 -46 -20 -58 -19 -22 0 -22 0 3 17 14 9 51 42 84 75 32 32 60 56
63 54 2 -3 -6 -21 -18 -42 -20 -33 -25 -49 -28 -90 -1 -6 -21 -21 -46 -35 -25
-14 -45 -30 -45 -37 0 -17 5 -16 38 4 l27 17 -22 -25 c-13 -14 -23 -31 -23
-38 0 -21 76 -5 145 31 72 37 115 51 115 36 0 -5 8 -7 17 -4 15 6 14 4 -2 -14
-15 -17 -16 -20 -3 -15 9 4 38 31 64 61 25 30 49 53 51 50 6 -6 -34 -93 -52
-116 -18 -22 -15 -49 4 -42 13 4 12 1 -3 -16 -11 -12 -15 -22 -10 -22 17 0 55
31 49 40 -3 5 1 12 8 17 7 4 21 19 30 32 19 28 58 37 49 12 -3 -9 -9 -21 -13
-27 -5 -6 -6 -14 -2 -17 3 -4 -2 -16 -12 -27 -10 -11 -15 -20 -10 -20 4 0 2
-7 -5 -15 -14 -17 0 -21 17 -4 8 8 13 8 17 0 10 -16 54 9 98 57 40 43 113 90
147 95 11 2 24 6 27 10 13 13 76 7 103 -9 15 -9 38 -32 51 -52 22 -32 25 -46
25 -132 0 -70 -4 -102 -14 -114 -14 -16 -12 -17 25 -11 21 4 75 26 119 49 79
40 80 42 77 76 -7 68 -66 155 -125 187 -16 8 -47 18 -70 23 l-42 9 48 -4 c92
-9 164 -78 194 -188 16 -54 18 -58 42 -53 25 5 25 4 -1 -7 -21 -8 -28 -18 -28
-39 0 -36 -30 -160 -41 -173 -13 -14 -11 -27 4 -19 7 5 6 1 -3 -10 -25 -32
-22 -46 8 -33 15 6 31 14 36 19 6 4 14 8 18 8 5 0 -6 -13 -24 -29 -33 -30 -26
-34 25 -13 40 17 42 15 10 -14 l-28 -25 35 17 c32 16 34 16 21 1 -16 -20 -16
-20 29 -6 19 6 45 12 58 14 12 2 56 24 96 49 41 25 80 46 87 46 11 0 11 -2 -1
-10 -12 -7 -12 -10 -1 -10 7 0 11 -6 7 -15 -11 -30 9 -13 116 98 110 112 96
80 -17 -43 -79 -85 -93 -103 -74 -94 8 3 52 48 98 100 46 51 88 91 93 88 5 -3
5 -11 -2 -19 -7 -9 -6 -16 7 -26 14 -12 16 -12 8 0 -6 11 -4 13 8 8 9 -3 30
-1 47 4 55 20 54 4 -5 -67 -33 -38 -64 -73 -70 -79 -5 -5 -21 -24 -35 -40 -14
-17 22 17 79 75 109 111 116 110 18 -3 -61 -70 -67 -89 -21 -68 15 6 29 10 32
7 7 -8 63 24 58 33 -6 9 18 33 44 45 8 4 2 -4 -15 -18 -16 -14 -25 -26 -20
-26 16 1 60 38 60 51 0 6 16 23 35 37 l35 25 -35 -31 c-55 -49 -25 -37 52 19
71 53 90 83 21 34 l-38 -27 30 26 c38 34 71 53 60 36 -5 -8 -3 -11 6 -8 20 6
89 100 89 119 0 9 7 20 16 23 8 3 12 11 9 16 -5 8 -12 7 -23 -2 -10 -7 -6 0 7
15 14 15 22 30 19 33 -7 6 -48 -17 -48 -28 0 -4 -7 -5 -15 -2 -9 4 -21 -6 -33
-26 -14 -22 -21 -27 -25 -17 -6 16 40 90 51 83 4 -2 18 12 31 31 18 27 19 34
7 30 -26 -10 -19 8 9 23 14 7 25 17 25 22 0 5 -6 6 -12 2 -7 -4 -4 2 6 14 11
12 16 22 11 22 -4 0 -2 6 4 14 18 21 -37 18 -77 -5 -39 -22 -59 -25 -45 -6 5
6 8 25 7 42 -2 21 0 25 6 15 7 -11 12 -10 30 11 14 15 23 20 26 12 4 -8 14 -4
32 12 15 13 38 32 51 43 18 14 25 30 27 61 1 23 4 45 8 48 11 12 6 23 -11 23
-13 0 -9 8 15 30 l33 30 -33 0 -32 0 23 16 c18 13 20 18 10 26 -11 7 -9 12 9
25 22 15 32 51 11 37 -31 -19 2 21 50 60 41 34 57 56 71 95 19 58 24 55 -67
42 -29 -4 -53 -4 -53 1 0 4 6 8 13 8 6 0 17 11 24 25 10 22 9 25 -10 25 -21 0
-21 1 3 21 l25 21 -30 -7 -30 -7 28 22 c15 12 25 25 23 28 -2 4 14 16 37 27
61 30 78 76 73 201 -3 55 -12 119 -21 144 -15 43 -37 129 -85 335 -12 50 -25
98 -31 108 -5 10 -14 52 -19 95 -19 169 -30 272 -36 367 -4 65 -10 93 -15 80
-6 -17 -8 -16 -10 10 -1 17 -1 41 0 53 1 13 -2 21 -7 18 -5 -3 -7 7 -5 22 4
22 2 24 -7 12 -10 -12 -11 -11 -7 8 10 43 -60 242 -85 242 -10 0 -39 56 -32
63 8 7 -37 75 -80 121 -20 22 -36 45 -36 51 0 19 -38 48 -52 39 -7 -4 -10 -4
-6 1 4 4 -11 17 -33 28 -22 11 -52 32 -68 47 -60 60 -232 119 -350 121 -31 0
-78 4 -106 8 -27 5 -60 5 -72 0 -15 -5 -34 -2 -62 12 -22 10 -49 19 -60 19
-10 0 -21 5 -23 11 -5 15 -60 21 -248 25 -141 3 -176 1 -238 -16z m374 -408
c70 -29 99 -34 131 -21 15 5 41 12 58 14 16 2 52 6 79 10 27 4 52 3 55 -2 3
-4 14 -12 24 -18 21 -11 35 -34 73 -117 14 -32 33 -58 41 -58 8 0 11 -4 8 -10
-3 -5 3 -20 15 -32 18 -19 22 -20 30 -8 5 8 10 12 10 8 0 -3 3 -14 7 -24 5
-13 3 -15 -7 -9 -9 5 -11 4 -6 -3 4 -7 13 -12 20 -12 8 0 20 -9 27 -21 8 -11
21 -21 29 -22 27 -4 40 -18 40 -42 0 -13 -6 -25 -12 -27 -8 -3 -12 -19 -10
-41 2 -22 -1 -37 -7 -37 -6 0 -11 -9 -11 -20 0 -11 -8 -28 -18 -38 -26 -26
-34 -50 -34 -107 0 -31 4 -49 11 -48 14 4 14 -10 -1 -25 -8 -8 -8 -15 0 -25 6
-7 17 -47 23 -88 7 -41 18 -103 26 -139 22 -100 29 -180 20 -234 -5 -30 -4
-75 3 -118 7 -39 9 -94 5 -127 -5 -46 -4 -61 8 -68 20 -12 29 -53 10 -46 -12
5 -14 0 -9 -25 4 -18 3 -33 -3 -37 -6 -3 -11 0 -11 7 0 10 -2 10 -9 -1 -5 -8
-7 -20 -4 -28 3 -8 0 -13 -7 -11 -7 2 -17 -11 -21 -29 -5 -17 -25 -54 -44 -83
-19 -29 -35 -58 -35 -65 0 -16 -63 -138 -98 -190 -38 -56 -48 -68 -134 -155
-102 -105 -184 -146 -320 -160 -53 -6 -110 -15 -126 -19 -19 -6 -34 -5 -40 1
-8 8 -26 6 -59 -5 -93 -29 -183 -30 -280 -1 -16 4 -23 2 -23 -7 0 -20 -50
-140 -75 -178 -28 -44 -102 -117 -111 -109 -3 3 2 20 11 37 24 47 -11 38 -89
-23 -40 -31 -63 -40 -70 -27 -3 4 22 48 54 97 33 49 60 94 60 100 0 7 17 19
38 27 53 21 142 95 142 118 0 10 -8 32 -19 49 l-18 31 -48 -48 c-50 -50 -50
-46 -3 25 16 23 34 40 40 36 18 -11 -2 56 -36 126 -38 76 -185 360 -246 475
-42 79 -42 81 -37 160 3 44 12 98 20 120 9 22 16 36 16 32 1 -10 21 6 78 61
29 28 39 42 27 40 -11 -2 -20 4 -22 13 -2 13 4 17 22 15 16 0 26 -7 26 -17 0
-16 26 -19 48 -5 6 4 16 4 22 1 15 -9 100 173 100 215 0 46 -66 152 -109 174
-16 9 -53 16 -81 17 -31 1 -54 7 -57 15 -2 7 3 39 11 71 24 90 56 244 56 273
0 14 7 35 15 46 8 10 15 27 15 36 0 9 6 21 13 25 6 4 22 28 35 53 28 57 93
139 110 140 6 0 12 5 12 10 0 6 4 10 10 10 13 0 105 56 150 91 26 20 43 26 63
22 22 -4 27 -2 27 13 0 13 3 15 8 7 5 -8 13 -9 22 -3 9 5 19 5 27 -2 9 -7 13
-7 13 0 0 16 27 19 146 17 83 -2 123 -8 160 -23z m-925 -283 c-17 -41 -31 -79
-31 -86 0 -6 -5 -15 -11 -19 -14 -8 -7 17 33 114 17 40 32 71 35 68 2 -2 -9
-37 -26 -77z m30 4 c-12 -20 -14 -14 -5 12 4 9 9 14 11 11 3 -2 0 -13 -6 -23z
m-74 -175 c-3 -7 -5 -2 -5 12 0 14 2 19 5 13 2 -7 2 -19 0 -25z m-22 -123 c-8
-54 -15 -117 -16 -139 0 -31 -2 -36 -8 -21 -11 27 22 275 35 262 2 -2 -3 -48
-11 -102z m-48 -227 c-3 -8 -6 -5 -6 6 -1 11 2 17 5 13 3 -3 4 -12 1 -19z
m2052 -41 c15 -18 0 -35 -75 -85 -34 -23 -83 -69 -112 -105 -69 -88 -114 -96
-83 -15 14 38 82 121 139 171 55 49 107 62 131 34z m-2042 -29 c-3 -8 -6 -5
-6 6 -1 11 2 17 5 13 3 -3 4 -12 1 -19z m-40 -45 c-3 -10 -5 -4 -5 12 0 17 2
24 5 18 2 -7 2 -21 0 -30z m40 5 c-3 -8 -6 -5 -6 6 -1 11 2 17 5 13 3 -3 4
-12 1 -19z m244 -11 c11 -7 19 -21 19 -33 0 -17 -10 -23 -51 -32 -85 -20 -91
-18 -86 29 2 23 10 45 18 50 16 11 73 3 100 -14z m-316 -91 c-8 -32 -17 -61
-20 -64 -4 -4 -4 7 0 23 16 72 27 107 30 103 2 -2 -3 -29 -10 -62z m2066 -53
c2 -55 -10 -79 -46 -93 -14 -5 -28 -1 -48 16 -16 13 -33 24 -38 24 -5 0 -9 7
-9 15 0 8 9 15 20 15 12 0 20 7 20 16 0 20 36 67 58 75 27 11 41 -12 43 -68z
m-1684 15 c-3 -8 -6 -5 -6 6 -1 11 2 17 5 13 3 -3 4 -12 1 -19z m1740 -10 c-3
-8 -6 -5 -6 6 -1 11 2 17 5 13 3 -3 4 -12 1 -19z m8 -73 c-11 -60 -13 -67 -9
-25 6 71 16 128 20 115 2 -5 -3 -46 -11 -90z m-1825 66 c0 -10 9 -30 20 -44
l20 -26 -27 -3 c-30 -3 -63 26 -63 56 0 14 25 35 43 36 4 0 7 -8 7 -19z m40
-16 c0 -8 -2 -15 -4 -15 -2 0 -6 7 -10 15 -3 8 -1 15 4 15 6 0 10 -7 10 -15z
m1750 -107 c0 -55 -23 -103 -75 -155 -34 -33 -52 -59 -49 -68 4 -8 9 -15 13
-15 12 0 88 84 104 115 13 24 16 26 17 10 0 -30 -48 -127 -60 -120 -5 3 -10
-1 -10 -9 0 -9 -5 -16 -10 -16 -6 0 -10 -6 -8 -13 4 -18 -71 -96 -114 -118
-59 -30 -70 -26 -66 24 2 25 8 41 15 40 8 -2 9 7 1 33 -11 40 -1 59 36 68 13
3 41 27 62 52 21 26 34 45 28 43 -5 -3 -21 -11 -37 -18 -31 -16 -46 -9 -27 14
10 12 10 15 -1 15 -8 0 -22 -14 -31 -30 -9 -17 -21 -30 -25 -30 -11 0 -33 80
-33 116 0 39 18 68 35 54 17 -14 136 -47 155 -43 8 2 26 19 39 38 27 40 41 44
41 13z m17 -80 c-3 -8 -6 -5 -6 6 -1 11 2 17 5 13 3 -3 4 -12 1 -19z m-1997
-406 c0 -5 -7 -17 -15 -28 -14 -18 -14 -17 -4 9 12 27 19 34 19 19z m1741
-214 c-5 -13 -9 -27 -9 -33 0 -15 -110 -90 -119 -81 -7 7 117 136 131 136 3 0
2 -10 -3 -22z m-1531 -188 c-16 -40 -23 -33 -9 9 6 18 14 30 17 27 2 -3 -1
-19 -8 -36z m27 3 c-3 -16 -8 -37 -12 -48 -3 -11 2 -5 13 14 20 36 39 29 27
-10 -4 -12 -9 -31 -11 -42 -13 -72 -18 -87 -35 -103 -18 -17 -19 -15 -19 51 0
38 7 88 17 116 20 54 29 64 20 22z m1600 11 c-3 -3 -12 -4 -19 -1 -8 3 -5 6 6
6 11 1 17 -2 13 -5z m-1837 -153 c0 -5 -7 -11 -14 -14 -10 -4 -13 -1 -9 9 6
15 23 19 23 5z m2170 -98 c-11 -17 -11 -17 -6 0 3 10 7 35 8 55 l1 37 4 -37
c2 -21 -1 -46 -7 -55z m-700 64 c0 -2 -12 -14 -27 -28 l-28 -24 24 28 c23 25
31 32 31 24z m5 -37 c-3 -5 -12 -10 -18 -10 -7 0 -6 4 3 10 19 12 23 12 15 0z
m-717 -142 c14 -13 22 -16 17 -8 -4 8 2 5 14 -7 11 -12 21 -27 21 -32 0 -6 20
-16 45 -22 25 -6 45 -15 45 -20 0 -8 44 -16 138 -24 64 -5 163 18 177 42 6 9
22 30 36 45 15 15 24 30 21 33 -4 3 0 4 8 0 12 -4 14 -20 12 -71 -4 -69 5
-125 16 -107 4 7 14 1 27 -16 12 -17 14 -22 3 -13 -12 9 -37 11 -96 6 -62 -5
-86 -3 -111 9 -17 9 -28 11 -25 5 4 -5 -4 -4 -17 3 -17 9 -66 12 -171 11
l-148 -2 0 32 c0 18 -12 60 -25 93 -14 33 -25 61 -25 63 0 8 17 -1 38 -20z
m768 -26 c-12 -11 -18 7 -10 30 l8 23 4 -23 c2 -13 1 -26 -2 -30z m-29 -4 c-3
-8 -6 -5 -6 6 -1 11 2 17 5 13 3 -3 4 -12 1 -19z m633 -42 c0 -3 -4 -8 -10
-11 -5 -3 -10 -1 -10 4 0 6 5 11 10 11 6 0 10 -2 10 -4z m-110 -86 c0 -5 -5
-10 -11 -10 -5 0 -7 5 -4 10 3 6 8 10 11 10 2 0 4 -4 4 -10z m116 -9 c-4 -5
-2 -11 4 -13 5 -1 -1 -8 -15 -14 -22 -11 -23 -10 -13 12 6 13 15 24 20 24 5 0
7 -4 4 -9z m-1675 -54 c-10 -9 -11 -8 -5 6 3 10 9 15 12 12 3 -3 0 -11 -7 -18z
m979 19 c0 -2 -16 -13 -35 -25 -19 -11 -35 -18 -35 -16 0 5 61 45 68 45 1 0 2
-2 2 -4z m-170 -108 c7 -29 17 -61 22 -71 13 -24 3 -48 -17 -41 -18 7 -21 44
-3 44 6 0 3 7 -8 15 -11 8 -14 14 -6 15 10 0 10 5 2 21 -15 26 -22 81 -11 74
5 -3 15 -29 21 -57z m-930 17 c-7 -9 -15 -13 -19 -10 -3 3 1 10 9 15 21 14 24
12 10 -5z m1000 -130 c0 -3 -18 -23 -40 -44 -32 -30 -39 -33 -35 -17 2 12 4
24 4 28 2 14 71 46 71 33z"/>
<path d="M2005 2630 c4 -12 2 -20 -5 -20 -6 0 -9 4 -6 9 3 5 -4 9 -17 9 -12 0
-34 4 -49 7 -22 6 -28 4 -28 -8 0 -12 -6 -14 -26 -8 -14 3 -71 3 -127 -2 -80
-6 -113 -13 -154 -34 -29 -15 -53 -31 -53 -36 0 -4 -4 -5 -10 -2 -13 8 -24
-38 -17 -72 3 -19 -2 -37 -19 -58 -13 -18 -29 -46 -35 -64 -10 -28 -8 -36 16
-71 19 -28 37 -41 60 -46 51 -9 89 -1 93 20 3 13 0 16 -9 11 -8 -5 -10 -4 -5
3 4 6 -1 23 -10 37 -14 21 -15 28 -4 38 10 9 11 9 6 0 -9 -16 40 -18 49 -3 3
6 11 10 17 10 6 0 4 -8 -5 -18 -21 -23 -21 -32 -1 -32 8 0 34 -8 57 -19 84
-37 107 -44 107 -32 0 3 -22 14 -50 24 -34 12 -50 23 -50 35 0 30 16 43 59 49
41 6 41 5 41 -26 0 -42 31 -71 76 -71 32 0 35 -2 23 -16 -11 -14 -9 -15 27 -8
21 4 48 8 59 8 12 1 33 9 48 19 37 24 51 22 81 -14 14 -17 26 -27 26 -22 0 5
17 19 38 30 54 31 83 75 79 119 -2 20 -8 39 -14 42 -10 7 -23 41 -44 123 -19
71 -27 78 -82 72 -25 -3 -44 -9 -42 -13 3 -5 -5 -6 -17 -2 -14 3 -17 7 -9 10
7 2 -6 13 -29 23 -52 23 -53 23 -45 -1z m-41 -23 c3 3 6 1 6 -6 0 -8 -6 -11
-16 -7 -9 3 -22 6 -30 6 -9 0 -12 5 -9 10 4 7 12 7 24 0 10 -5 21 -6 25 -3z
m-46 -107 c59 -10 112 -33 112 -49 0 -3 -16 -17 -36 -30 -38 -26 -64 -28 -191
-17 -68 7 -113 20 -113 35 0 62 84 84 228 61z m-201 -196 c-9 -9 -28 6 -21 18
4 6 10 6 17 -1 6 -6 8 -13 4 -17z m147 10 c3 -8 2 -12 -4 -9 -6 3 -10 10 -10
16 0 14 7 11 14 -7z m111 -54 c3 -5 -1 -10 -9 -10 -9 0 -16 5 -16 10 0 6 4 10
9 10 6 0 13 -4 16 -10z"/>
<path d="M1860 2230 c36 -11 50 -11 50 0 0 6 -17 10 -37 9 -34 -1 -35 -2 -13
-9z"/>
<path d="M1406 1988 c-3 -10 -9 -26 -12 -35 -6 -17 -8 -48 -5 -86 0 -10 6 -15
11 -12 6 4 8 11 5 16 -3 5 0 6 7 4 20 -8 60 38 52 58 -3 10 -10 17 -15 17 -4
0 -15 12 -23 28 -12 23 -15 24 -20 10z"/>
<path d="M1534 1887 c11 -83 -9 -109 -61 -82 -33 18 -91 19 -130 4 -15 -6 -46
-14 -68 -18 l-40 -7 60 -32 c55 -30 65 -33 120 -27 70 8 132 33 160 64 27 31
25 94 -5 127 -35 37 -43 30 -36 -29z m-79 -117 c-3 -5 -14 -10 -23 -10 -15 0
-15 2 -2 10 20 13 33 13 25 0z"/>
<path d="M2410 1920 c0 -11 5 -20 10 -20 6 0 10 9 10 20 0 11 -4 20 -10 20 -5
0 -10 -9 -10 -20z"/>
<path d="M1133 1681 c1 -21 33 -39 45 -26 9 9 -12 39 -31 43 -11 2 -15 -3 -14
-17z"/>
<path d="M1839 1584 c-34 -41 -65 -47 -230 -39 -158 7 -221 -1 -242 -29 -6 -8
-10 -7 -14 2 -2 6 -12 12 -21 12 -9 0 -27 10 -40 23 -14 12 -22 16 -17 8 6
-11 4 -13 -8 -8 -28 11 -19 -9 16 -35 43 -33 141 -53 215 -44 98 13 133 6 112
-19 -7 -8 -9 -18 -6 -24 3 -5 -5 -8 -19 -6 -14 1 -28 -1 -30 -6 -6 -9 -112
-25 -135 -20 -8 2 -17 6 -20 10 -3 4 -23 8 -44 9 -22 2 -44 6 -49 9 -6 3 -7 1
-3 -6 15 -24 69 -42 144 -48 94 -7 122 4 278 103 74 47 114 66 139 67 26 1 35
5 35 19 0 9 -9 22 -19 28 -25 13 -26 13 -42 -6z"/>
<path d="M1495 1350 c-55 -5 -58 -7 -34 -17 15 -7 41 -8 67 -3 82 15 60 28
-33 20z"/>
<path d="M1021 3213 c-10 -26 -10 -27 4 -9 8 11 15 23 15 28 0 15 -7 8 -19
-19z"/>
<path d="M831 2744 c0 -11 3 -14 6 -6 3 7 2 16 -1 19 -3 4 -6 -2 -5 -13z"/>
<path d="M745 2044 c-9 -15 -12 -23 -6 -20 11 7 35 46 28 46 -3 0 -12 -12 -22
-26z"/>
<path d="M719 1743 c-13 -16 -12 -17 4 -4 9 7 17 15 17 17 0 8 -8 3 -21 -13z"/>
<path d="M690 1691 c0 -6 4 -13 10 -16 6 -3 7 1 4 9 -7 18 -14 21 -14 7z"/>
<path d="M907 1614 c-13 -18 -14 -22 -3 -18 8 3 17 13 20 21 10 25 3 23 -17
-3z"/>
<path d="M760 1576 c-24 -14 -24 -14 10 -11 19 1 34 6 33 11 -3 14 -17 14 -43
0z"/>
<path d="M3223 1064 c-14 -9 -14 -12 2 -18 17 -6 17 -8 -3 -22 -12 -8 -22 -24
-22 -34 0 -19 1 -19 20 -3 12 11 16 20 9 24 -7 4 -4 9 6 13 9 3 14 10 10 15
-3 5 4 12 15 16 11 3 20 10 20 14 0 11 -40 8 -57 -5z"/>
<path d="M3240 980 c-14 -11 -20 -20 -14 -20 6 0 19 9 29 20 23 25 17 25 -15
0z"/>
<path d="M3076 643 c-9 -13 -21 -21 -27 -18 -5 4 -9 1 -9 -4 0 -6 3 -11 6 -11
10 0 47 22 65 39 17 16 17 17 0 17 -9 0 -25 -11 -35 -23z"/>
<path d="M2060 500 c-13 -8 -13 -11 -1 -19 11 -7 10 -10 -5 -15 -24 -7 -50
-46 -32 -46 6 0 3 -7 -8 -15 -10 -8 -15 -15 -10 -15 5 0 2 -8 -5 -17 -12 -15
-12 -16 5 -9 19 7 19 6 1 -14 -20 -22 -8 -28 15 -7 8 6 4 0 -9 -15 -26 -29
-19 -37 11 -14 22 16 45 80 54 146 7 54 7 55 -16 40z"/>
</g>
</svg>
